<?xml version="1.0" encoding="iso-8859-1"?>
<svg version="1.1" id="Capa_1" xmlns="http://www.w3.org/2000/svg" xmlns:xlink="http://www.w3.org/1999/xlink" x="0px" y="0px"
     viewBox="0 0 511.999 511.999" style="enable-background:new 0 0 511.999 511.999;" xml:space="preserve">
<polygon style="fill:#947C6B;" points="474.746,286.809 474.746,182.609 63.302,182.609 63.302,501.851 474.746,501.851
	474.746,396.794 308.943,396.794 308.943,286.809 "/>
    <polygon style="fill:#67B475;" points="433.322,182.609 453.064,168.209 338.338,10.148 246.813,76.909 202.094,109.714
	102.16,182.609 "/>
    <path style="fill:#8DE0A8;" d="M202.094,109.714l44.719-32.806l50.045-36.504l-21.961-30.256l-91.525,66.761l-44.719,32.806
	L38.372,182.853c1.308-0.161,2.636-0.245,3.987-0.245h20.942h38.857L202.094,109.714z"/>
    <path style="fill:#C6D555;" d="M358.892,182.609c-8.733-14.37-7.662-32.921,2.68-46.198l2.011-2.581l-19.94-27.336l-3.072,1.127
	c-15.836,5.805-33.873,1.128-44.882-11.64l-2.613-3.03l-26.016,18.977l-42.505,31.004l-54.395,39.677L358.892,182.609
	L358.892,182.609z"/>
    <g>
	<path style="fill:#C7A87E;" d="M42.36,182.609c-17.872,0-32.36,14.488-32.36,32.36v254.522c0,17.872,14.488,32.36,32.36,32.36
		h20.942V182.609L42.36,182.609L42.36,182.609z"/>
        <rect x="308.942" y="286.812" style="fill:#C7A87E;" width="193.062" height="109.981"/>
</g>
    <circle style="fill:#EE4A4D;" cx="372.923" cy="341.802" r="29.754"/>
    <path d="M372.922,381.556c-21.92,0-39.754-17.834-39.754-39.754c0-21.921,17.834-39.755,39.754-39.755
	c21.92,0,39.754,17.834,39.754,39.755C412.676,363.722,394.842,381.556,372.922,381.556z M372.922,322.047
	c-10.893,0-19.754,8.862-19.754,19.755s8.861,19.754,19.754,19.754s19.754-8.861,19.754-19.754S383.814,322.047,372.922,322.047z"/>
    <path d="M413.061,463.441c-2.63,0-5.2-1.069-7.069-2.93c-0.46-0.46-0.881-0.97-1.24-1.52c-0.36-0.54-0.67-1.12-0.92-1.721
	c-0.25-0.609-0.44-1.239-0.57-1.88c-0.13-0.64-0.2-1.3-0.2-1.95c0-0.649,0.07-1.31,0.2-1.949c0.13-0.641,0.32-1.271,0.57-1.881
	c0.25-0.6,0.56-1.18,0.92-1.72c0.359-0.55,0.78-1.059,1.24-1.52c1.869-1.86,4.44-2.931,7.069-2.931c2.63,0,5.21,1.07,7.07,2.931
	c0.47,0.46,0.88,0.97,1.25,1.52c0.36,0.54,0.67,1.12,0.92,1.72c0.25,0.61,0.44,1.24,0.57,1.881c0.13,0.64,0.189,1.3,0.189,1.949
	c0,0.65-0.06,1.311-0.189,1.95c-0.13,0.641-0.32,1.271-0.57,1.88c-0.25,0.601-0.56,1.181-0.92,1.721c-0.37,0.55-0.78,1.06-1.25,1.52
	C418.27,462.371,415.691,463.441,413.061,463.441z"/>
    <path d="M502,276.809h-17.254v-94.201c0-5.522-4.478-10-10-10H462.04c1.574-3.218,1.366-7.174-0.884-10.273L346.431,4.274
	c-1.561-2.149-3.912-3.59-6.535-4.004c-2.622-0.415-5.304,0.233-7.45,1.799l-33.383,24.349L282.989,4.274
	c-1.561-2.149-3.912-3.59-6.535-4.004c-2.622-0.415-5.304,0.233-7.451,1.799l0,0L34.408,173.368l0,0
	C14.84,177.101,0,194.33,0,214.969v254.522c0,23.357,19.002,42.36,42.359,42.36h20.942h411.443c5.522,0,10-4.478,10-10v-95.057
	h17.254c5.522,0,10-4.477,10-10V286.81C512,281.286,507.522,276.809,502,276.809z M336.133,24.134L439.11,166.009l-9.048,6.6
	h-64.972c-3.849-9.945-2.316-21.466,4.371-30.052l2.011-2.581c2.743-3.52,2.82-8.433,0.19-12.038l-19.94-27.337
	c-2.631-3.606-7.334-5.03-11.521-3.496l-3.073,1.127c-11.946,4.379-25.559,0.852-33.866-8.781l-2.612-3.029
	c-3.401-3.944-9.26-4.616-13.466-1.549L166.9,172.609h-34.061l45.802-33.409l29.367-21.421l44.697-32.79l50.045-36.504
	c0.001-0.001,0.003-0.002,0.004-0.003L336.133,24.134z M344.242,172.609H200.839l90.907-66.31
	c12.791,12.019,31.169,16.631,48.146,12.021l11.283,15.468C343.691,145.333,341.312,159.431,344.242,172.609z M144.568,117.778
	l44.697-32.79l83.426-60.853l10.213,14.069l-42.007,30.641l-44.697,32.79l-97.3,70.974H69.391L144.568,117.778z M39.786,192.761
	c0.314-0.036,0.629-0.064,0.943-0.087c0.112-0.008,0.223-0.019,0.335-0.025c0.434-0.025,0.866-0.04,1.294-0.04H53.3v250.833H20
	V214.969C20,203.51,28.666,194.042,39.786,192.761z M20,469.491v-6.049h33.302v28.409H42.359C30.03,491.851,20,481.82,20,469.491z
	 M464.746,491.851H73.303v-28.409h307.165c5.522,0,10-4.478,10-10c0-5.522-4.478-10-10-10H73.303V192.609l0,0l0,0h391.443l0,0l0,0
	v24.296H142.247c-5.522,0-10,4.477-10,10c0,5.522,4.478,10,10,10h322.499v39.904H308.943c-5.522,0-10,4.478-10,10v109.984v0.001
	c0,5.523,4.478,10,10,10h155.802V491.851z M492,386.794h-17.236c-0.006,0-0.012-0.001-0.018-0.001H318.944V296.81h155.802H492
	V386.794z"/>
    <path d="M109.651,236.905c-5.522,0-10-4.478-10-10v-1.071c0-5.523,4.478-10,10-10s10,4.477,10,10v1.071
	C119.651,232.427,115.174,236.905,109.651,236.905z"/>
</svg>
